<?xml version="1.0" encoding="UTF-8"?>
<svg id="Ebene_1" data-name="Ebene 1" xmlns="http://www.w3.org/2000/svg" viewBox="0 0 31.99 31.99">
  <defs>
    <style>
      .cls-1 {
        fill: #593d39;
        stroke-width: 0px;
      }
    </style>
  </defs>
  <g>
    <polygon class="cls-1" points="15.95 23.48 15.95 21.13 12.76 21.09 13.55 23.5 15.95 23.48"/>
    <polygon class="cls-1" points="12.59 19.55 13.28 20.66 15.95 20.54 15.95 18.32 12.59 18.31 12.59 19.55"/>
    <polyline class="cls-1" points="15.95 27.34 15.95 24.24 13.85 24.28"/>
    <polygon class="cls-1" points="13.21 15.25 13.38 16.19 12.73 17.62 15.95 17.62 15.95 8.72 15.12 8.72 13.58 7.36 13.17 7.4 13.33 7.82 14.71 9.03 13.7 11.99 4.16 9.79 4.16 9.06 15.95 2.24 15.95 .23 15.95 .23 2.38 8.06 2.38 9.74 1.59 9.87 .07 11.59 .91 13.14 6.14 16.33 13.21 15.25"/>
    <polygon class="cls-1" points="15.95 31.52 15.95 29.53 15.95 29.53 4.14 22.7 4.14 17.49 2.41 16.59 2.41 23.7 11.3 28.8 15.95 31.52"/>
  </g>
  <g>
    <polygon class="cls-1" points="15.95 23.48 15.95 21.13 19.14 21.09 18.35 23.5 15.95 23.48"/>
    <polygon class="cls-1" points="19.31 19.55 18.62 20.66 15.95 20.54 15.95 18.32 19.31 18.31 19.31 19.55"/>
    <polyline class="cls-1" points="15.95 27.34 15.95 24.24 18.06 24.28"/>
    <polygon class="cls-1" points="18.69 15.25 18.52 16.19 19.17 17.62 15.95 17.62 15.95 8.72 16.78 8.72 18.32 7.36 18.73 7.4 18.57 7.82 17.19 9.03 18.2 11.99 27.74 9.79 27.74 9.06 15.95 2.24 15.95 .23 15.95 .23 29.52 8.06 29.52 9.74 30.31 9.87 31.84 11.59 30.99 13.14 25.76 16.33 18.69 15.25"/>
    <polygon class="cls-1" points="15.95 31.52 15.95 29.53 15.95 29.53 27.77 22.7 27.77 17.49 29.5 16.59 29.5 23.7 20.6 28.8 15.95 31.52"/>
  </g>
</svg>