<?xml version="1.0" encoding="UTF-8"?>
<svg id="Samples" xmlns="http://www.w3.org/2000/svg" viewBox="0 0 1000 1000">
  <defs>
    <style>
      .cls-1 {
        fill: #5b3c38;
        stroke-width: 0px;
      }
    </style>
  </defs>
  <g>
    <g>
      <polygon class="cls-1" points="357.65 271.33 277.85 271.33 237.94 340.45 277.85 409.56 357.65 409.56 397.55 340.45 357.65 271.33"/>
      <polygon class="cls-1" points="491.85 348.32 412.05 348.32 372.14 417.43 412.05 486.54 491.85 486.54 531.75 417.43 491.85 348.32"/>
      <polygon class="cls-1" points="357.13 423.55 277.32 423.55 237.42 492.67 277.32 561.78 357.13 561.78 397.03 492.67 357.13 423.55"/>
    </g>
    <g>
      <polygon class="cls-1" points="491.53 40.38 411.73 40.38 371.83 109.49 411.73 178.6 491.53 178.6 531.43 109.49 491.53 40.38"/>
      <polygon class="cls-1" points="625.73 117.37 545.93 117.37 506.03 186.48 545.93 255.59 625.73 255.59 665.63 186.48 625.73 117.37"/>
      <polygon class="cls-1" points="491.01 192.6 411.21 192.6 371.3 261.71 411.21 330.82 491.01 330.82 530.91 261.71 491.01 192.6"/>
    </g>
    <g>
      <polygon class="cls-1" points="484.08 497.04 404.28 497.04 364.37 566.15 404.28 635.26 484.08 635.26 523.98 566.15 484.08 497.04"/>
      <polygon class="cls-1" points="618.28 574.03 538.48 574.03 498.57 643.14 538.48 712.25 618.28 712.25 658.18 643.14 618.28 574.03"/>
      <polygon class="cls-1" points="483.56 649.26 403.75 649.26 363.85 718.37 403.75 787.48 483.56 787.48 523.46 718.37 483.56 649.26"/>
    </g>
    <g>
      <polygon class="cls-1" points="617.96 266.09 538.16 266.09 498.26 335.2 538.16 404.31 617.96 404.31 657.86 335.2 617.96 266.09"/>
      <polygon class="cls-1" points="752.16 343.07 672.36 343.07 632.46 412.18 672.36 481.29 752.16 481.29 792.06 412.18 752.16 343.07"/>
      <polygon class="cls-1" points="617.44 418.31 537.64 418.31 497.73 487.42 537.64 556.53 617.44 556.53 657.34 487.42 617.44 418.31"/>
    </g>
  </g>
  <g>
    <g>
      <path class="cls-1" d="m41.12,948.01v-105.35h53.48c11.11,0,19.22,2.8,24.31,8.41,5.09,5.61,7.64,12.01,7.64,19.22,0,5.25-1.48,9.99-4.44,14.24-2.96,4.24-7.37,7.17-13.24,8.76,13.63,3.29,20.45,11.47,20.45,24.54,0,7.82-2.41,14.81-7.22,20.95-4.81,6.15-15.09,9.22-30.83,9.22h-50.17Zm29.79-64.98h14.97c3.76,0,6.41-.95,7.95-2.86,1.54-1.9,2.32-3.94,2.32-6.1,0-5.87-3.6-8.8-10.8-8.8h-14.43v17.75Zm0,41.52h15.74c3.91,0,6.78-.96,8.61-2.89,1.83-1.93,2.74-4.1,2.74-6.52s-.89-4.64-2.66-6.68c-1.78-2.03-5.03-3.05-9.76-3.05h-14.66v19.14Z"/>
      <path class="cls-1" d="m193.47,919.84l28.71,1.93c-1.7,7.72-6.03,14.29-13,19.72-6.97,5.43-16.4,8.14-28.29,8.14-13.22,0-23.77-3.82-31.64-11.46-7.87-7.64-11.81-17.12-11.81-28.44s3.88-21.64,11.65-29.71c7.77-8.08,18.14-12.12,31.1-12.12s22.7,3.81,30.45,11.42c7.74,7.62,11.62,17.98,11.62,31.1,0,1.08-.03,2.57-.08,4.48h-52.56c.1,4.94.98,8.61,2.62,11,1.65,2.39,4.79,3.59,9.42,3.59,6.69,0,10.62-3.21,11.81-9.65Zm-2.08-20.37c-.05-5.3-1.12-8.86-3.19-10.69-2.08-1.83-4.65-2.74-7.73-2.74-7.28,0-10.92,4.48-10.92,13.43h21.84Z"/>
      <path class="cls-1" d="m286.16,919.84l28.71,1.93c-1.7,7.72-6.03,14.29-13,19.72-6.97,5.43-16.4,8.14-28.29,8.14-13.22,0-23.77-3.82-31.64-11.46-7.87-7.64-11.81-17.12-11.81-28.44s3.88-21.64,11.65-29.71c7.77-8.08,18.14-12.12,31.1-12.12s22.7,3.81,30.45,11.42c7.74,7.62,11.62,17.98,11.62,31.1,0,1.08-.03,2.57-.08,4.48h-52.56c.1,4.94.98,8.61,2.62,11,1.65,2.39,4.79,3.59,9.42,3.59,6.69,0,10.62-3.21,11.81-9.65Zm-2.08-20.37c-.05-5.3-1.12-8.86-3.19-10.69-2.08-1.83-4.65-2.74-7.73-2.74-7.28,0-10.92,4.48-10.92,13.43h21.84Z"/>
      <path class="cls-1" d="m460.04,842.67l-27.94,105.35h-27.17l-14.74-58.11-13.92,58.11h-28.32l-27.99-105.35h30.43l14.74,60.63,14.38-60.63h25.39l15.64,60.75,14.76-60.75h24.75Z"/>
      <path class="cls-1" d="m503.03,949.63c-13.02,0-23.36-4.05-31.03-12.16-7.67-8.1-11.5-17.61-11.5-28.52,0-11.73,4-21.51,12-29.33,8-7.82,18.41-11.73,31.22-11.73s23.29,3.86,31.14,11.58c7.85,7.72,11.77,17.39,11.77,29.02s-3.97,21.52-11.92,29.37c-7.95,7.85-18.51,11.77-31.68,11.77Zm.46-18.68c4.79,0,7.7-2.48,8.76-7.45,1.05-4.96,1.58-10.15,1.58-15.55,0-7.36-.75-12.66-2.24-15.9-1.49-3.24-4.17-4.86-8.03-4.86-3.55,0-6.15,1.67-7.79,5.02-1.65,3.35-2.47,8.85-2.47,16.52,0,9,.85,14.96,2.55,17.87,1.7,2.91,4.24,4.36,7.64,4.36Z"/>
      <path class="cls-1" d="m635.23,948.01h-30.79v-49.39c0-4.06-.63-6.66-1.89-7.79-1.26-1.13-2.84-1.7-4.75-1.7-5.61,0-8.41,3.91-8.41,11.73v47.16h-30.79v-78.49h28.56v11.11c4.22-8.49,11.76-12.73,22.61-12.73,5.71,0,10.53,1.09,14.47,3.28,3.94,2.19,6.75,5.02,8.45,8.49,1.7,3.47,2.55,9.51,2.55,18.1v50.24Z"/>
      <path class="cls-1" d="m728.08,948.01h-28.86v-10.42c-4.27,8.03-11.32,12.04-21.15,12.04-9.06,0-16.4-3.54-22.03-10.61-5.63-7.07-8.45-17.35-8.45-30.83,0-12.61,2.83-22.61,8.49-30.02,5.66-7.41,13.15-11.11,22.46-11.11,7.77,0,14.17,2.96,19.22,8.88v-33.26h30.33v105.35Zm-30.33-50.47c0-7.05-2.91-10.57-8.72-10.57-4.07,0-6.73,2.24-7.99,6.71-1.26,4.48-1.89,9.96-1.89,16.44,0,12.71,3.24,19.06,9.72,19.06,2.47,0,4.57-1,6.29-3.01,1.72-2.01,2.59-5.07,2.59-9.18v-19.45Z"/>
      <path class="cls-1" d="m796.15,919.84l28.71,1.93c-1.7,7.72-6.03,14.29-13,19.72-6.97,5.43-16.4,8.14-28.29,8.14-13.22,0-23.77-3.82-31.64-11.46-7.87-7.64-11.81-17.12-11.81-28.44s3.88-21.64,11.65-29.71c7.77-8.08,18.14-12.12,31.1-12.12s22.7,3.81,30.45,11.42c7.74,7.62,11.62,17.98,11.62,31.1,0,1.08-.03,2.57-.08,4.48h-52.56c.1,4.94.98,8.61,2.62,11,1.65,2.39,4.79,3.59,9.42,3.59,6.69,0,10.62-3.21,11.81-9.65Zm-2.08-20.37c-.05-5.3-1.12-8.86-3.19-10.69-2.08-1.83-4.65-2.74-7.73-2.74-7.28,0-10.92,4.48-10.92,13.43h21.84Z"/>
      <path class="cls-1" d="m866.46,948.01h-29.48v-78.49h25.62v16.21c2.93-11.78,9.75-17.67,20.45-17.67,1.08,0,2.57.1,4.48.31v27.4c-2.16-.51-4.09-.77-5.79-.77-10.19,0-15.28,5.69-15.28,17.06v35.96Z"/>
    </g>
    <path class="cls-1" d="m887.74,923.5l24.34-3.32c1.39,5.67,6.9,8.5,16.54,8.5,7.98,0,11.98-1.55,11.98-4.64,0-1.34-.77-2.38-2.32-3.13-1.55-.75-5.2-1.51-10.97-2.28-15.97-2.22-25.94-5.68-29.9-10.39-3.97-4.71-5.95-9.95-5.95-15.72,0-8.04,3.35-14.54,10.05-19.51,6.7-4.97,15.48-7.46,26.35-7.46,19.06,0,31.22,6.88,36.47,20.63l-23.34,4.4c-2.16-4.64-6.72-6.95-13.68-6.95-3.3,0-5.76.45-7.38,1.35-1.62.9-2.43,1.79-2.43,2.67,0,2.58,2.47,4.14,7.42,4.7,12.88,1.42,21.61,2.89,26.2,4.38,4.58,1.5,8.5,4.23,11.74,8.2,3.24,3.97,4.87,8.76,4.87,14.38,0,8.61-3.59,15.44-10.78,20.49-7.19,5.05-17.09,7.58-29.71,7.58-21.28,0-34.44-7.96-39.49-23.88Z"/>
  </g>
</svg>